<svg xmlns="http://www.w3.org/2000/svg" width="55.64" height="55.64" viewBox="0 0 55.64 55.64">
    <defs>
        <style>
            .cls-1,.cls-4,.cls-8{fill:none}.cls-2{clip-path:url(#clip-path)}.cls-3{fill:#7c0a27;stroke:#7c0a27}.cls-4,.cls-5,.cls-6,.cls-7,.cls-8{stroke:#fff}.cls-5{fill:#b0824c}.cls-5,.cls-6,.cls-7{stroke-width:.75px}.cls-6{fill:#b2b2b2}.cls-7{fill:red}.cls-8{stroke-linecap:round;stroke-width:.5px}.cls-9{stroke:none}
        </style>
        <clipPath id="clip-path">
            <path d="M0 0h55.64v55.64H0z" class="cls-1"/>
        </clipPath>
    </defs>
    <g id="Component_15_1" class="cls-2" data-name="Component 15 – 1">
        <g id="Ellipse_148" class="cls-3" data-name="Ellipse 148">
            <circle cx="27.82" cy="27.82" r="27.82" class="cls-9"/>
            <circle cx="27.82" cy="27.82" r="27.32" class="cls-1"/>
        </g>
        <g id="Group_10097" data-name="Group 10097" transform="translate(12.461 9.485)">
            <g id="Rectangle_2062" class="cls-4" data-name="Rectangle 2062">
                <rect width="30.718" height="37.629" class="cls-9" rx="2"/>
                <rect width="29.718" height="36.629" x=".5" y=".5" class="cls-1" rx="1.5"/>
            </g>
            <g id="Rectangle_2063" class="cls-5" data-name="Rectangle 2063" transform="translate(3.072 3.072)">
                <rect width="24.574" height="6.144" class="cls-9" rx="1"/>
                <rect width="23.824" height="5.394" x=".375" y=".375" class="cls-1" rx=".625"/>
            </g>
            <g id="Group_10094" data-name="Group 10094" transform="translate(3.072 11.193)">
                <g id="Rectangle_2064" class="cls-6" data-name="Rectangle 2064">
                    <rect width="5.617" height="5.617" class="cls-9" rx="1"/>
                    <rect width="4.867" height="4.867" x=".375" y=".375" class="cls-1" rx=".625"/>
                </g>
                <g id="Rectangle_2065" class="cls-6" data-name="Rectangle 2065" transform="translate(6.319)">
                    <rect width="5.617" height="5.617" class="cls-9" rx="1"/>
                    <rect width="4.867" height="4.867" x=".375" y=".375" class="cls-1" rx=".625"/>
                </g>
                <g id="Rectangle_2066" class="cls-6" data-name="Rectangle 2066" transform="translate(12.638)">
                    <rect width="5.617" height="5.617" class="cls-9" rx="1"/>
                    <rect width="4.867" height="4.867" x=".375" y=".375" class="cls-1" rx=".625"/>
                </g>
                <g id="Rectangle_2067" class="cls-7" data-name="Rectangle 2067" transform="translate(18.957)">
                    <rect width="5.617" height="5.617" class="cls-9" rx="1"/>
                    <rect width="4.867" height="4.867" x=".375" y=".375" class="cls-1" rx=".625"/>
                </g>
                <path id="Line_90" d="M0 0h1.294" class="cls-4" data-name="Line 90" transform="translate(1.936 1.966)"/>
                <path id="Line_91" d="M0 0h1.294" class="cls-4" data-name="Line 91" transform="translate(8.405 1.966)"/>
                <path id="Line_92" d="M0 0h1.294" class="cls-4" data-name="Line 92" transform="translate(14.875 1.966)"/>
                <path id="Line_93" d="M0 0h1.294" class="cls-4" data-name="Line 93" transform="translate(21.345 1.966)"/>
            </g>
            <g id="Group_10095" data-name="Group 10095" transform="translate(3.072 17.337)">
                <g id="Rectangle_2064-2" class="cls-6" data-name="Rectangle 2064">
                    <rect width="5.617" height="5.617" class="cls-9" rx="1"/>
                    <rect width="4.867" height="4.867" x=".375" y=".375" class="cls-1" rx=".625"/>
                </g>
                <g id="Rectangle_2065-2" class="cls-6" data-name="Rectangle 2065" transform="translate(6.319)">
                    <rect width="5.617" height="5.617" class="cls-9" rx="1"/>
                    <rect width="4.867" height="4.867" x=".375" y=".375" class="cls-1" rx=".625"/>
                </g>
                <g id="Rectangle_2066-2" class="cls-6" data-name="Rectangle 2066" transform="translate(12.638)">
                    <rect width="5.617" height="5.617" class="cls-9" rx="1"/>
                    <rect width="4.867" height="4.867" x=".375" y=".375" class="cls-1" rx=".625"/>
                </g>
            </g>
            <g id="Group_10096" data-name="Group 10096" transform="translate(3.072 17.337)">
                <g id="Rectangle_2064-3" class="cls-6" data-name="Rectangle 2064" transform="translate(0 6.144)">
                    <rect width="5.617" height="5.617" class="cls-9" rx="1"/>
                    <rect width="4.867" height="4.867" x=".375" y=".375" class="cls-1" rx=".625"/>
                </g>
                <g id="Rectangle_2065-3" class="cls-6" data-name="Rectangle 2065" transform="translate(6.319 6.144)">
                    <rect width="5.617" height="5.617" class="cls-9" rx="1"/>
                    <rect width="4.867" height="4.867" x=".375" y=".375" class="cls-1" rx=".625"/>
                </g>
                <g id="Rectangle_2066-3" class="cls-6" data-name="Rectangle 2066" transform="translate(12.638 6.144)">
                    <rect width="5.617" height="5.617" class="cls-9" rx="1"/>
                    <rect width="4.867" height="4.867" x=".375" y=".375" class="cls-1" rx=".625"/>
                </g>
                <g id="Rectangle_2067-2" class="cls-6" data-name="Rectangle 2067" transform="translate(18.957)">
                    <rect width="5.617" height="11.761" class="cls-9" rx="1"/>
                    <rect width="4.867" height="11.011" x=".375" y=".375" class="cls-1" rx=".625"/>
                </g>
            </g>
            <g id="Rectangle_10372" class="cls-4" data-name="Rectangle 10372">
                <rect width="30.718" height="33.748" class="cls-9" rx="2"/>
                <rect width="29.718" height="32.748" x=".5" y=".5" class="cls-1" rx="1.5"/>
            </g>
            <path id="Line_88" d="M0 0h7.764" class="cls-8" data-name="Line 88" transform="translate(11.477 31.275)"/>
            <path id="Line_89" d="M0 0h7.764" class="cls-8" data-name="Line 89" transform="translate(16.653 6.69)"/>
        </g>
    </g>
</svg>
